<?xml version="1.0" encoding="UTF-8"?>
<svg id="Layer_1" data-name="Layer 1" xmlns="http://www.w3.org/2000/svg" version="1.1" viewBox="0 0 296 296">
  <defs>
    <style>
      .cls-1 {
        fill: #000;
        stroke-width: 0px;
      }
    </style>
  </defs>
  <path class="cls-1" d="M148,0C66.3,0,0,66.3,0,148s66.3,148,148,148,148-66.3,148-148S229.7,0,148,0ZM147.8,68.2c27.4,0,49.6,22.3,49.6,49.6s-22.3,49.6-49.6,49.6-49.6-22.3-49.6-49.6,22.3-49.6,49.6-49.6ZM237,236.9c-22.6,23.1-54.1,37.5-89,37.5s-66.4-14.3-89-37.5c-1.8-1.8-3.5-3.7-5.2-5.7.2-3.8.4-8.2.8-8.8,12.8-22,31.9-38.3,54.3-47.1,2.5-1,5.3-.8,7.6.5,9.3,5.1,20,7.9,31.3,7.9s22.1-2.9,31.4-8c2.4-1.3,5.2-1.4,7.7-.5,22.5,8.8,41.7,25.1,54.5,47.2.4.7.6,5,.8,8.8-1.7,2-3.4,3.9-5.2,5.7h0Z"/>
</svg>