<?xml version="1.0" encoding="UTF-8"?>
<svg id="Layer_1" data-name="Layer 1" xmlns="http://www.w3.org/2000/svg" version="1.1" viewBox="0 0 479.9 249.3">
  <defs>
    <style>
      .cls-1 {
        fill: #000;
        stroke-width: 0px;
      }
    </style>
  </defs>
  <path class="cls-1" d="M463.4,187.7h0ZM273.6,249.3c-65.5.1-273.7,0-273.7,0v-69.7c0-4,1.5-7.8,4.3-10.8,2.6-2.9,6.4-4.7,10.4-5,8.8-.6,16.9-4.6,22.9-11s9.3-14.8,9.3-23.5c0-8.8-3.3-17.2-9.3-23.5-6-6.4-14.1-10.4-22.8-11-4-.4-7.8-2.1-10.5-5.1S0,82.8,0,78.8V.2C0,.2,129.7.4,152.4.4h0c38.4,0,67.9,57.7,99.1,118.9,24,46.9,53.7,105.3,77.4,105.9,19,.5,96.9.2,127.1,0v-38.7c-11.9-2.4-22.7-8.6-31.1-17.5-10.1-10.8-15.7-25-15.7-39.9s5.6-29.1,15.6-40c8.3-9.1,19.2-15.1,31-17.6V24c-89.2-.1-216.2-.2-225.8.1L207.1,0c63.3,0,272.9.2,272.9.2v78.4c0,4-1.6,7.8-4.2,10.8s-6.4,4.7-10.5,5.1c-8.8.6-16.9,4.6-22.9,11-6,6.4-9.3,14.8-9.3,23.5,0,8.8,3.3,17.2,9.3,23.5,6,6.4,14.1,10.3,22.8,11,4,.3,7.8,2.1,10.5,5.1,2.8,2.9,4.2,6.7,4.2,10.8v69.6s-127.8.6-151.7,0c-37.9-1-67.2-58.3-98.1-119-13.9-27.3-28.4-55.5-42.5-75.9-17.2-24.7-28.6-29.9-35.1-29.9h0c-18.5,0-97.9,0-128.5,0v47.4c11.9,2.4,22.7,8.6,31.1,17.5,10,10.9,15.7,25,15.6,40,0,14.9-5.6,29.1-15.6,40-8.3,9.1-19.2,15.1-31.1,17.5v38.6c48.8.1,206.1.4,226.7-.1l22.8,24.1h.2Z"/>
  <g>
    <rect class="cls-1" x="344" y="24.2" width="24" height="16.5"/>
    <rect class="cls-1" x="344" y="64.8" width="24" height="24"/>
    <rect class="cls-1" x="343.9" y="112.7" width="24" height="24"/>
    <rect class="cls-1" x="343.9" y="160.8" width="24" height="24"/>
    <rect class="cls-1" x="343.9" y="208.7" width="24" height="16.5"/>
  </g>
</svg>