<?xml version="1.0" encoding="UTF-8"?>
<svg id="Layer_1" data-name="Layer 1" xmlns="http://www.w3.org/2000/svg" version="1.1" viewBox="0 0 515.3 515.5">
  <defs>
    <style>
      .cls-1 {
        fill: #000;
        stroke-width: 0px;
      }
    </style>
  </defs>
  <path class="cls-1" d="M460.2,144.2h0s0,0,0,0ZM369.5,322c-46.2,46.4-193.5,193.5-193.5,193.5l-49.3-49.3c-2.8-2.8-4.5-6.6-4.6-10.7-.2-3.9,1.2-7.8,3.8-10.9,5.8-6.7,8.7-15.2,8.4-24-.3-8.8-3.9-17-10.1-23.2-6.2-6.2-14.5-9.8-23.2-10.1-8.8-.3-17.3,2.6-23.9,8.4-3.1,2.6-7,4-11,3.8-4-.2-7.7-1.8-10.6-4.6L-.1,339.4s91.9-91.6,107.9-107.7h0c27.1-27.2,88.8-7.2,154.1,14,50.1,16.2,112.4,36.5,129.6,20.2,13.8-13.1,68.7-68.4,89.9-89.8l-27.4-27.4c-10.1,6.7-22.1,10-34.4,9.6-14.8-.5-28.8-6.6-39.3-17.1-10.5-10.5-16.6-24.5-17.2-39.3-.5-12.3,2.9-24.3,9.5-34.4l-33.5-33.6c-63.2,63-153.1,152.8-159.6,159.8l-33.3-.9C190.9,148,339.3,0,339.3,0l55.4,55.5c2.8,2.8,4.5,6.6,4.7,10.6.2,4-1.2,7.9-3.8,11-5.8,6.7-8.7,15.2-8.4,24,.3,8.8,3.9,17,10.1,23.2,6.2,6.2,14.5,9.8,23.2,10.1,8.8.3,17.3-2.7,23.9-8.4,3-2.6,7-4,11-3.8,4,.1,7.7,1.8,10.6,4.7l49.2,49.2s-89.9,90.8-107.3,107.3c-27.5,26.1-88.7,6.3-153.5-14.8-29.1-9.5-59.3-19.2-83.7-23.6-29.6-5.3-41.4-.9-46,3.7h0c-13,13.1-69.3,69.2-90.9,90.8l33.5,33.5c10.1-6.7,22.1-10,34.4-9.6,14.8.6,28.8,6.6,39.3,17.2s16.6,24.5,17.2,39.3c.5,12.3-2.9,24.3-9.6,34.4l27.3,27.3c34.6-34.4,146-145.4,160.2-160.4l33.2.9h0Z"/>
  <g>
    <rect class="cls-1" x="262.5" y="102.2" width="24" height="16.5" transform="translate(2.3 226.4) rotate(-45)"/>
    <rect class="cls-1" x="293.8" y="129.8" width="24" height="24" transform="translate(-10.7 257.7) rotate(-45)"/>
    <rect class="cls-1" x="327.7" y="163.7" width="24" height="24" transform="translate(-24.8 291.7) rotate(-45)"/>
    <rect class="cls-1" x="361.6" y="197.7" width="24" height="24" transform="translate(-38.8 325.6) rotate(-45)"/>
    <rect class="cls-1" x="392.9" y="232.7" width="24" height="16.5" transform="translate(-51.8 356.9) rotate(-45)"/>
  </g>
</svg>